<svg width="40" height="41" viewBox="0 0 40 41" fill="none" xmlns="http://www.w3.org/2000/svg">
    <path fillRule="evenodd" clipRule="evenodd"
        d="M19.993 0.915283C30.7732 0.915283 39.5544 9.69652 39.5544 20.4767C39.5544 31.2569 30.7732 40.0382 19.993 40.0382C9.21275 40.0382 0.431519 31.2569 0.431519 20.4767C0.431519 9.69652 9.21275 0.915283 19.993 0.915283ZM19.279 2.34313C17.0659 2.62869 14.9241 4.48489 13.2821 7.41197C12.7824 8.26867 12.354 9.26816 11.997 10.2677C14.2102 9.69652 16.7089 9.33956 19.279 9.33956V2.34313ZM10.355 10.8388C10.8548 9.33956 11.4259 8.0545 12.0684 6.84083C12.8538 5.3416 13.8532 4.05654 14.9241 3.05705C8.99858 4.77046 4.28669 9.48234 2.57328 15.4079C3.57277 14.337 4.85783 13.3375 6.35707 12.5522C7.49934 11.8383 8.85579 11.2671 10.355 10.8388ZM9.85528 12.4808C9.28414 14.694 8.92718 17.1927 8.92718 19.7628H1.85936C2.14493 17.5497 4.00113 15.4079 6.9282 13.7659C7.8563 13.2661 8.85579 12.8378 9.85528 12.4808ZM10.355 19.7628C10.4264 16.9071 10.8548 14.2656 11.4973 11.9811C13.8532 11.3385 16.4948 10.9102 19.279 10.8388V13.9087C18.2082 16.6216 16.0664 18.7633 13.3535 19.8342H10.355V19.7628ZM8.92718 21.1907H1.85936C2.14493 23.4038 4.00113 25.5456 6.9282 27.1876C7.78491 27.6873 8.7844 28.1157 9.78389 28.4726C9.28414 26.1881 8.99858 23.7608 8.92718 21.1907ZM11.4973 28.9724C10.8548 26.6165 10.4264 23.9749 10.355 21.1907H13.4249C16.1378 22.2615 18.2796 24.4033 19.3504 27.1162V30.1861C16.4234 30.0433 13.7818 29.6863 11.4973 28.9724ZM10.355 30.1147C8.85579 29.6149 7.57073 29.0438 6.35707 28.4013C4.85783 27.6159 3.57277 26.6165 2.57328 25.5456C4.28669 31.4711 8.99858 36.183 14.9241 37.8964C13.8532 36.8969 12.8538 35.6119 12.0684 34.1126C11.3545 32.9704 10.7834 31.6139 10.355 30.1147ZM19.279 38.5389C17.0659 38.2534 14.9241 36.3972 13.2821 33.4701C12.7824 32.6134 12.354 31.6139 11.997 30.6144C14.2102 31.1856 16.7089 31.5425 19.279 31.5425V38.5389ZM25.0618 37.8964C26.1327 36.8969 27.1322 35.6119 27.9175 34.1126C28.56 32.899 29.1312 31.5425 29.6309 30.1147C31.1301 29.6149 32.4152 29.0438 33.6289 28.4013C35.1281 27.6159 36.4132 26.6165 37.4126 25.5456C35.6992 31.4711 30.9874 36.183 25.0618 37.8964ZM27.9889 30.6144C27.6319 31.6853 27.2036 32.6134 26.7038 33.4701C25.0618 36.4686 22.92 38.2534 20.7069 38.5389V31.5425C23.277 31.4711 25.7043 31.1856 27.9889 30.6144ZM30.1306 28.4726C31.2015 28.1157 32.1296 27.6873 32.9863 27.1876C35.9848 25.5456 37.7696 23.4038 38.0552 21.1907H31.0587C30.9874 23.7608 30.7018 26.1881 30.1306 28.4726ZM29.6309 21.1907C29.5595 24.0463 29.1312 26.6878 28.4886 28.9724C26.1327 29.6149 23.4912 30.0433 20.7069 30.1147V27.0448C21.7778 24.3319 23.9195 22.1901 26.6324 21.1193H29.6309V21.1907ZM31.0587 19.7628H38.0552C37.7696 17.5497 35.9848 15.4079 32.9863 13.7659C32.1296 13.2661 31.1301 12.8378 30.1306 12.4808C30.7018 14.694 30.9874 17.1927 31.0587 19.7628ZM28.4886 11.9811C29.1312 14.337 29.5595 16.9785 29.6309 19.7628H26.561C23.8481 18.6919 21.7064 16.5502 20.6355 13.8373V10.7674C23.4912 10.9102 26.1327 11.2671 28.4886 11.9811ZM29.6309 10.8388C31.1301 11.3385 32.4152 11.9097 33.6289 12.5522C35.1281 13.3375 36.4132 14.337 37.4126 15.4079C35.6992 9.48234 30.9874 4.77046 25.0618 3.05705C26.1327 4.05654 27.1322 5.3416 27.9175 6.84083C28.56 7.98311 29.1312 9.33956 29.6309 10.8388ZM20.7069 2.34313C22.92 2.62869 25.0618 4.48489 26.7038 7.41197C27.2036 8.26867 27.6319 9.26816 27.9889 10.2677C25.7757 9.69652 23.277 9.33956 20.7069 9.33956V2.34313Z"
        fill="#0D61F8" />
</svg>