<svg width="141" height="41" viewBox="0 0 141 41" fill="none" xmlns="http://www.w3.org/2000/svg">
    <g clipPath="url(#clip0_33_147)">
        <path fillRule="evenodd" clipRule="evenodd"
            d="M19.993 0.915283C30.7732 0.915283 39.5544 9.69652 39.5544 20.4767C39.5544 31.2569 30.7732 40.0382 19.993 40.0382C9.21275 40.0382 0.431519 31.2569 0.431519 20.4767C0.431519 9.69652 9.21275 0.915283 19.993 0.915283ZM19.279 2.34313C17.0659 2.62869 14.9241 4.48489 13.2821 7.41197C12.7824 8.26867 12.354 9.26816 11.997 10.2677C14.2102 9.69652 16.7089 9.33956 19.279 9.33956V2.34313ZM10.355 10.8388C10.8548 9.33956 11.4259 8.0545 12.0684 6.84083C12.8538 5.3416 13.8532 4.05654 14.9241 3.05705C8.99858 4.77046 4.28669 9.48234 2.57328 15.4079C3.57277 14.337 4.85783 13.3375 6.35707 12.5522C7.49934 11.8383 8.85579 11.2671 10.355 10.8388ZM9.85528 12.4808C9.28414 14.694 8.92718 17.1927 8.92718 19.7628H1.85936C2.14493 17.5497 4.00113 15.4079 6.9282 13.7659C7.8563 13.2661 8.85579 12.8378 9.85528 12.4808ZM10.355 19.7628C10.4264 16.9071 10.8548 14.2656 11.4973 11.9811C13.8532 11.3385 16.4948 10.9102 19.279 10.8388V13.9087C18.2082 16.6216 16.0664 18.7633 13.3535 19.8342H10.355V19.7628ZM8.92718 21.1907H1.85936C2.14493 23.4038 4.00113 25.5456 6.9282 27.1876C7.78491 27.6873 8.7844 28.1157 9.78389 28.4726C9.28414 26.1881 8.99858 23.7608 8.92718 21.1907ZM11.4973 28.9724C10.8548 26.6165 10.4264 23.9749 10.355 21.1907H13.4249C16.1378 22.2615 18.2796 24.4033 19.3504 27.1162V30.1861C16.4234 30.0433 13.7818 29.6863 11.4973 28.9724ZM10.355 30.1147C8.85579 29.6149 7.57073 29.0438 6.35707 28.4013C4.85783 27.6159 3.57277 26.6165 2.57328 25.5456C4.28669 31.4711 8.99858 36.183 14.9241 37.8964C13.8532 36.8969 12.8538 35.6119 12.0684 34.1126C11.3545 32.9704 10.7834 31.6139 10.355 30.1147ZM19.279 38.5389C17.0659 38.2534 14.9241 36.3972 13.2821 33.4701C12.7824 32.6134 12.354 31.6139 11.997 30.6144C14.2102 31.1856 16.7089 31.5425 19.279 31.5425V38.5389ZM25.0618 37.8964C26.1327 36.8969 27.1322 35.6119 27.9175 34.1126C28.56 32.899 29.1312 31.5425 29.6309 30.1147C31.1301 29.6149 32.4152 29.0438 33.6289 28.4013C35.1281 27.6159 36.4132 26.6165 37.4126 25.5456C35.6992 31.4711 30.9874 36.183 25.0618 37.8964ZM27.9889 30.6144C27.6319 31.6853 27.2036 32.6134 26.7038 33.4701C25.0618 36.4686 22.92 38.2534 20.7069 38.5389V31.5425C23.277 31.4711 25.7043 31.1856 27.9889 30.6144ZM30.1306 28.4726C31.2015 28.1157 32.1296 27.6873 32.9863 27.1876C35.9848 25.5456 37.7696 23.4038 38.0552 21.1907H31.0587C30.9874 23.7608 30.7018 26.1881 30.1306 28.4726ZM29.6309 21.1907C29.5595 24.0463 29.1312 26.6878 28.4886 28.9724C26.1327 29.6149 23.4912 30.0433 20.7069 30.1147V27.0448C21.7778 24.3319 23.9195 22.1901 26.6324 21.1193H29.6309V21.1907ZM31.0587 19.7628H38.0552C37.7696 17.5497 35.9848 15.4079 32.9863 13.7659C32.1296 13.2661 31.1301 12.8378 30.1306 12.4808C30.7018 14.694 30.9874 17.1927 31.0587 19.7628ZM28.4886 11.9811C29.1312 14.337 29.5595 16.9785 29.6309 19.7628H26.561C23.8481 18.6919 21.7064 16.5502 20.6355 13.8373V10.7674C23.4912 10.9102 26.1327 11.2671 28.4886 11.9811ZM29.6309 10.8388C31.1301 11.3385 32.4152 11.9097 33.6289 12.5522C35.1281 13.3375 36.4132 14.337 37.4126 15.4079C35.6992 9.48234 30.9874 4.77046 25.0618 3.05705C26.1327 4.05654 27.1322 5.3416 27.9175 6.84083C28.56 7.98311 29.1312 9.33956 29.6309 10.8388ZM20.7069 2.34313C22.92 2.62869 25.0618 4.48489 26.7038 7.41197C27.2036 8.26867 27.6319 9.26816 27.9889 10.2677C25.7757 9.69652 23.277 9.33956 20.7069 9.33956V2.34313Z"
            fill="#0D61F8" />
        <path
            d="M46.3367 30.1861L52.6192 12.1239H56.403L62.8283 30.1861H58.9731L57.7594 26.3309H51.2627L50.0491 30.1861H46.3367ZM53.7614 18.335L52.1194 23.5466H56.9027L55.2607 18.335L54.5468 15.5507H54.4754C54.1898 16.7644 53.9042 17.6925 53.7614 18.335Z"
            fill="black" />
        <path
            d="M69.6105 30.5431C67.5401 30.5431 65.8981 29.9006 64.6845 28.6155C63.4708 27.3305 62.8997 25.6885 62.8997 23.6895C62.8997 21.7619 63.4708 20.1199 64.6845 18.8348C65.8981 17.5498 67.3974 16.9072 69.2536 16.9072C71.3239 16.9072 72.8946 17.6211 73.9654 19.049C75.1077 20.4768 75.6075 22.333 75.6075 24.7604H66.3265C66.4693 25.7599 66.8262 26.6166 67.3974 27.1163C67.9685 27.6874 68.6824 27.973 69.6819 27.973C70.967 27.973 71.7523 27.4733 72.1806 26.4024H75.5361C75.2505 27.616 74.608 28.6155 73.6085 29.4722C72.5376 30.1862 71.2525 30.5431 69.6105 30.5431ZM69.325 19.4773C67.6829 19.4773 66.6834 20.4054 66.3265 22.2616H72.1092C72.0379 21.4049 71.7523 20.7624 71.2525 20.2627C70.7528 19.7629 70.1103 19.4773 69.325 19.4773Z"
            fill="black" />
        <path
            d="M76.3214 19.4773V17.1928H78.1062V13.1234H81.4616V17.1928H83.6747V19.4773H81.4616V26.331C81.4616 27.1877 81.8899 27.616 82.7466 27.616H83.7461V30.1861C83.2464 30.1861 82.5325 30.2575 81.6044 30.2575C80.6049 30.2575 79.7482 30.0434 79.1056 29.5436C78.4631 29.0439 78.1062 28.2585 78.1062 27.1877V19.4773H76.3214Z"
            fill="black" />
        <path
            d="M88.8864 12.1239V18.9062H88.9577C89.4575 18.1922 89.9572 17.6925 90.5284 17.3355C91.0995 16.9786 91.8134 16.8358 92.6701 16.8358C94.0266 16.8358 95.0975 17.2641 95.8828 18.1922C96.7395 19.1203 97.0964 20.2626 97.0964 21.6904V30.1861H93.6696V22.1902C93.6696 21.4763 93.4555 20.9051 93.0985 20.4768C92.6701 20.0484 92.1704 19.8343 91.4565 19.8343C90.6712 19.8343 90.1 20.1198 89.6003 20.691C89.1005 21.2621 88.8864 21.976 88.8864 22.8327V30.1861H85.4595V12.1239H88.8864Z"
            fill="black" />
        <path
            d="M105.449 30.5431C103.379 30.5431 101.737 29.9006 100.523 28.6155C99.3097 27.3305 98.7385 25.6885 98.7385 23.6895C98.7385 21.7619 99.3097 20.1199 100.523 18.8348C101.737 17.5498 103.236 16.9072 105.092 16.9072C107.163 16.9072 108.733 17.6211 109.804 19.049C110.947 20.4768 111.446 22.333 111.446 24.7604H102.023C102.165 25.7599 102.522 26.6166 103.093 27.1163C103.665 27.6874 104.379 27.973 105.378 27.973C106.663 27.973 107.448 27.4733 107.877 26.4024H111.232C110.947 27.616 110.304 28.6155 109.305 29.4722C108.376 30.1862 107.02 30.5431 105.449 30.5431ZM105.164 19.4773C103.522 19.4773 102.522 20.4054 102.165 22.2616H107.948C107.877 21.4049 107.591 20.7624 107.091 20.2627C106.592 19.7629 105.949 19.4773 105.164 19.4773Z"
            fill="black" />
        <path
            d="M116.372 17.1927V19.2631H116.444C116.872 18.4778 117.3 17.978 117.8 17.5497C118.3 17.1927 118.871 16.9785 119.656 16.9785C120.013 16.9785 120.299 16.9785 120.442 17.0499V20.1912H120.37C119.228 20.0484 118.3 20.3339 117.586 20.9765C116.872 21.619 116.515 22.5471 116.515 23.9036V30.1861H113.088V17.1927H116.372Z"
            fill="black" />
        <path d="M122.227 30.1861V12.1239H135.148V15.1938H125.867V19.5487H133.721V22.6899H125.867V30.1861H122.227Z"
            fill="black" />
        <path d="M137.005 15.1938V12.1239H140.432V15.1938H137.005ZM137.005 30.1861V17.1927H140.432V30.1861H137.005Z"
            fill="black" />
    </g>
    <defs>
        <clipPath id="clip0_33_147">
            <rect width="140" height="39.1229" fill="white" transform="translate(0.431519 0.915283)" />
        </clipPath>
    </defs>
</svg>