<svg width="24" height="24" viewBox="0 0 24 24" fill="none" xmlns="http://www.w3.org/2000/svg">
    <g id="66dec484340463593a6fb3ef_shield-heart%20(1).svg">
        <path id="Vector"
            d="M12.0001 20.64C10.5056 20.2524 9.10423 19.5683 7.87933 18.6283C6.65444 17.6884 5.63098 16.5118 4.86978 15.1685C4.10858 13.8253 3.62517 12.3426 3.44829 10.8088C3.27141 9.27503 3.40464 7.72131 3.84009 6.24002C6.831 6.37688 9.75765 5.34393 12.0001 3.36002C14.2425 5.34393 17.1692 6.37688 20.1601 6.24002C20.6175 7.79667 20.7411 9.4323 20.523 11.04M17.7601 21.6001L20.9761 18.4475C21.1734 18.2561 21.3303 18.0272 21.4375 17.7741C21.5448 17.5212 21.6003 17.2492 21.6007 16.9744C21.6012 16.6996 21.5465 16.4275 21.4401 16.1742C21.3336 15.9208 21.1775 15.6913 20.9809 15.4993C20.5798 15.107 20.0413 14.8868 19.4801 14.8858C18.9191 14.8847 18.3797 15.1028 17.9771 15.4936L17.762 15.7048L17.548 15.4936C17.1469 15.1015 16.6086 14.8816 16.0477 14.8805C15.4868 14.8794 14.9477 15.0974 14.5451 15.4878C14.3478 15.6791 14.1908 15.908 14.0835 16.1609C13.9762 16.4139 13.9206 16.6859 13.92 16.9606C13.9194 17.2355 13.974 17.5076 14.0803 17.761C14.1867 18.0144 14.3428 18.2439 14.5393 18.436L17.7601 21.6001Z"
            stroke="#0D61F8" stroke-width="1.92" stroke-linecap="round" stroke-linejoin="round" />
    </g>
</svg>