<svg width="25" height="25" viewBox="0 0 25 25" fill="none" xmlns="http://www.w3.org/2000/svg">
<g id="trash">
<path id="Icon" fillRule="evenodd" clipRule="evenodd" d="M11.2298 1.75003L11.121 1.74992C10.6084 1.74916 10.1585 1.74848 9.75762 1.90615C9.40709 2.04402 9.09677 2.26768 8.85513 2.55663C8.57878 2.88709 8.43715 3.31412 8.27577 3.80066L8.24147 3.90391L7.95943 4.75003H4.5H2.5C2.08579 4.75003 1.75 5.08582 1.75 5.50003C1.75 5.91424 2.08579 6.25003 2.5 6.25003H3.79282L4.39693 16.5199L4.39881 16.5518C4.45958 17.585 4.5078 18.4049 4.59968 19.0652C4.69376 19.7414 4.84057 20.3113 5.13159 20.8287C5.60467 21.6698 6.3227 22.3468 7.1901 22.7697C7.72368 23.0298 8.30125 23.1429 8.98175 23.1971C9.64635 23.25 10.4677 23.25 11.5027 23.25H11.5346H13.4654H13.4973C14.5323 23.25 15.3537 23.25 16.0182 23.1971C16.6987 23.1429 17.2763 23.0298 17.8099 22.7697C18.6773 22.3468 19.3953 21.6698 19.8684 20.8287C20.1594 20.3113 20.3062 19.7414 20.4003 19.0652C20.4922 18.4049 20.5404 17.5851 20.6012 16.5521V16.552L20.6012 16.5519L20.6031 16.5199L21.0134 9.54407C21.0377 9.13057 20.7222 8.77565 20.3087 8.75132C19.8952 8.727 19.5403 9.04249 19.516 9.45599L19.1057 16.4318C19.0426 17.504 18.9973 18.2643 18.9146 18.8585C18.8332 19.4437 18.7226 19.8061 18.561 20.0933C18.2373 20.6688 17.7461 21.132 17.1526 21.4214C16.8564 21.5657 16.4881 21.6549 15.8991 21.7018C15.3011 21.7495 14.5394 21.75 13.4654 21.75H11.5346C10.4606 21.75 9.69893 21.7495 9.10087 21.7018C8.51191 21.6549 8.1436 21.5657 7.84742 21.4214C7.25394 21.132 6.76265 20.6688 6.43897 20.0933C6.27743 19.8061 6.16679 19.4437 6.08537 18.8585C6.00269 18.2643 5.95741 17.504 5.89434 16.4318L5.29541 6.25003H8.4827C8.49433 6.2503 8.50594 6.2503 8.51751 6.25003H16.4825C16.4941 6.2503 16.5057 6.2503 16.5173 6.25003H22.5C22.9142 6.25003 23.25 5.91424 23.25 5.50003C23.25 5.08582 22.9142 4.75003 22.5 4.75003H17.0406L16.7585 3.90391L16.7242 3.80066C16.5629 3.31412 16.4212 2.88709 16.1449 2.55663C15.9032 2.26768 15.5929 2.04402 15.2424 1.90615C14.8415 1.74848 14.3916 1.74916 13.879 1.74992L13.7702 1.75003H11.2298ZM15.4594 4.75003L15.3355 4.37825C15.1186 3.72743 15.0633 3.60155 14.9942 3.5189C14.9137 3.42258 14.8102 3.34803 14.6934 3.30207C14.5931 3.26263 14.4562 3.25003 13.7702 3.25003H11.2298C10.5438 3.25003 10.4069 3.26263 10.3066 3.30207C10.1898 3.34803 10.0863 3.42258 10.0058 3.5189C9.93668 3.60155 9.88144 3.72743 9.66449 4.37825L9.54057 4.75003H15.4594ZM11.25 10.5C11.25 10.0858 10.9142 9.75003 10.5 9.75003C10.0858 9.75003 9.75 10.0858 9.75 10.5V17.5C9.75 17.9142 10.0858 18.25 10.5 18.25C10.9142 18.25 11.25 17.9142 11.25 17.5V10.5ZM14.5 9.75003C14.9142 9.75003 15.25 10.0858 15.25 10.5V14.5C15.25 14.9142 14.9142 15.25 14.5 15.25C14.0858 15.25 13.75 14.9142 13.75 14.5V10.5C13.75 10.0858 14.0858 9.75003 14.5 9.75003Z" fill="white"/>
</g>
</svg>
